<svg xmlns="http://www.w3.org/2000/svg" viewBox="17.50 18.00 955.06 205.00" role="img" aria-label="Plant centar"><title>Plant centar — logotip bez slogana</title><path fill="#6D6F71" fill-rule="evenodd" d="M43.28,60.51Q43.44,60.44 43.5,60.5Q43.56,60.56 43.59,60.66Q43.61,60.75 43.59,60.88Q43.58,61 43.52,61.16Q43.47,61.31 43.38,61.5Q43.28,61.69 43,62.17Q42.72,62.66 42.25,63.44Q41.78,64.22 41.13,65.3Q40.47,66.38 39.63,67.75Q38.78,69.13 37.99,70.57Q37.2,72.02 36.47,73.53Q35.73,75.05 35.05,76.63Q34.38,78.22 33.75,79.88Q33.13,81.53 32.56,83.2Q32,84.88 31.5,86.56Q31,88.25 30.56,89.95Q30.13,91.66 29.75,93.38Q29.38,95.09 29.07,96.84Q28.77,98.59 28.53,100.38Q28.3,102.16 28.13,103.97Q27.97,105.78 27.88,107.63Q27.78,109.47 27.73,111.2Q27.69,112.94 27.69,114.56Q27.69,116.19 27.73,117.7Q27.78,119.22 27.88,120.63Q27.97,122.03 28.16,123.63Q28.36,125.23 28.66,127.03Q28.95,128.83 29.35,130.82Q29.75,132.81 30.25,135Q30.75,137.19 31.31,139.26Q31.88,141.33 32.5,143.28Q33.13,145.23 33.81,147.07Q34.5,148.91 35.25,150.63Q36,152.34 36.84,154.09Q37.69,155.83 38.63,157.59Q39.56,159.36 40.59,161.15Q41.63,162.94 42.75,164.75Q43.88,166.56 44.96,168.22Q46.05,169.88 47.09,171.38Q48.14,172.88 49.15,174.22Q50.16,175.56 51.13,176.75Q52.09,177.94 53.21,179.19Q54.33,180.44 55.59,181.75Q56.86,183.06 58.27,184.44Q59.69,185.81 61.25,187.25Q62.81,188.69 64.34,190.01Q65.86,191.33 67.34,192.53Q68.83,193.73 70.27,194.82Q71.72,195.91 73.13,196.88Q74.53,197.84 76.13,198.82Q77.72,199.8 79.5,200.78Q81.28,201.77 83.25,202.76Q85.22,203.75 87.38,204.75Q89.53,205.75 91.69,206.63Q93.84,207.52 96,208.28Q98.16,209.05 100.31,209.7Q102.47,210.34 104.63,210.88Q106.78,211.41 108.66,211.84Q110.53,212.27 112.13,212.59Q113.72,212.92 115.03,213.15Q116.34,213.38 117.38,213.5Q118.41,213.63 119.53,213.72Q120.66,213.81 121.88,213.88Q123.09,213.94 124.41,213.97Q125.72,214 127.13,214Q128.53,214 130.13,213.91Q131.73,213.81 133.53,213.63Q135.33,213.44 137.32,213.16Q139.31,212.88 141.5,212.5Q143.69,212.13 145.77,211.69Q147.84,211.25 149.81,210.75Q151.78,210.25 153.64,209.69Q155.5,209.13 157.25,208.5Q159,207.88 160.26,207.47Q161.52,207.06 162.28,206.88Q163.05,206.69 163.32,206.72Q163.59,206.75 163.38,207Q163.16,207.25 162.76,207.55Q162.36,207.86 161.78,208.22Q161.2,208.58 160.45,208.99Q159.69,209.41 158.75,209.88Q157.81,210.34 156.6,210.89Q155.39,211.44 153.91,212.06Q152.42,212.69 150.66,213.39Q148.91,214.09 146.88,214.88Q144.84,215.66 142.83,216.34Q140.81,217.02 138.81,217.59Q136.81,218.17 134.83,218.65Q132.84,219.13 130.88,219.5Q128.91,219.88 126.91,220.16Q124.92,220.44 122.91,220.63Q120.89,220.81 118.85,220.91Q116.81,221 114.75,221Q112.69,221 110.77,220.94Q108.86,220.88 107.09,220.75Q105.33,220.63 103.71,220.44Q102.09,220.25 100.63,220Q99.16,219.75 97.57,219.41Q95.98,219.06 94.28,218.63Q92.58,218.19 90.76,217.66Q88.94,217.13 87,216.5Q85.06,215.88 83.13,215.15Q81.2,214.42 79.28,213.59Q77.36,212.77 75.45,211.84Q73.53,210.91 71.63,209.88Q69.72,208.84 67.86,207.73Q66,206.61 64.19,205.41Q62.38,204.2 60.61,202.91Q58.84,201.63 57.13,200.25Q55.41,198.88 53.74,197.41Q52.08,195.94 50.47,194.38Q48.86,192.81 47.3,191.16Q45.75,189.5 44.25,187.75Q42.75,186 41.49,184.49Q40.23,182.98 39.22,181.72Q38.2,180.45 37.43,179.43Q36.66,178.41 36.13,177.63Q35.59,176.84 35.01,175.9Q34.42,174.95 33.78,173.84Q33.14,172.73 32.45,171.46Q31.75,170.19 31,168.75Q30.25,167.31 29.53,165.8Q28.81,164.3 28.13,162.72Q27.44,161.14 26.78,159.49Q26.13,157.84 25.5,156.13Q24.88,154.41 24.31,152.67Q23.75,150.94 23.25,149.19Q22.75,147.44 22.31,145.67Q21.88,143.91 21.5,142.13Q21.13,140.34 20.82,138.45Q20.52,136.56 20.28,134.56Q20.05,132.56 19.88,130.45Q19.72,128.34 19.63,126.13Q19.53,123.91 19.52,121.82Q19.5,119.73 19.56,117.78Q19.63,115.83 19.77,114.01Q19.91,112.19 20.13,110.5Q20.34,108.81 20.66,107.04Q20.98,105.27 21.41,103.41Q21.83,101.55 22.35,99.6Q22.88,97.66 23.5,95.63Q24.13,93.59 24.85,91.58Q25.58,89.56 26.41,87.56Q27.23,85.56 28.16,83.58Q29.09,81.59 30.13,79.63Q31.16,77.66 32.1,75.94Q33.05,74.22 33.91,72.75Q34.77,71.28 35.54,70.06Q36.31,68.84 37,67.88Q37.69,66.91 38.31,66.06Q38.94,65.22 39.5,64.5Q40.06,63.78 40.56,63.19Q41.06,62.59 41.5,62.13Q41.94,61.66 42.28,61.32Q42.63,60.98 42.88,60.78Q43.13,60.58 43.28,60.51ZM817.76,70.13Q818.28,70.09 818.88,70.13Q819.47,70.16 819.99,70.22Q820.52,70.28 820.97,70.38Q821.42,70.47 821.8,70.59Q822.19,70.72 822.5,70.88Q822.81,71.03 823.12,71.23Q823.42,71.42 823.72,71.66Q824.02,71.89 824.3,72.16Q824.59,72.44 824.88,72.75Q825.16,73.06 825.4,73.41Q825.64,73.75 825.84,74.13Q826.05,74.5 826.21,74.91Q826.38,75.31 826.5,75.75Q826.63,76.19 826.73,76.89Q826.84,77.59 826.94,78.56Q827.03,79.53 827.11,80.77Q827.19,82 827.25,83.5Q827.31,85 827.87,86.13Q828.42,87.27 829.47,88.03Q830.52,88.8 832.05,89.2Q833.59,89.59 835.63,89.63Q837.66,89.66 839.28,89.75Q840.91,89.84 842.13,90Q843.34,90.16 844.16,90.38Q844.97,90.59 845.38,90.88Q845.78,91.16 846.1,91.55Q846.42,91.94 846.66,92.44Q846.89,92.94 847.04,93.55Q847.19,94.16 847.25,94.88Q847.31,95.59 847.29,96.23Q847.27,96.86 847.16,97.41Q847.05,97.95 846.85,98.41Q846.66,98.88 846.38,99.25Q846.09,99.63 845.81,99.93Q845.53,100.23 845.25,100.47Q844.97,100.7 844.69,100.87Q844.41,101.03 844.13,101.13Q843.84,101.22 843.21,101.29Q842.58,101.36 841.59,101.41Q840.61,101.45 839.27,101.48Q837.94,101.5 836.25,101.5Q834.56,101.5 833.22,101.52Q831.88,101.55 830.88,101.59Q829.88,101.64 829.22,101.71Q828.56,101.78 828.25,101.88Q827.94,101.97 827.7,103.09Q827.47,104.22 827.31,106.38Q827.16,108.53 827.08,111.72Q827,114.91 827,119.13Q827,123.34 827.07,126.66Q827.14,129.97 827.28,132.38Q827.42,134.78 827.63,136.28Q827.84,137.78 828.13,138.38Q828.41,138.97 828.7,139.48Q828.98,139.98 829.28,140.41Q829.58,140.83 829.88,141.16Q830.19,141.5 830.5,141.75Q830.81,142 831.13,142.22Q831.44,142.44 831.75,142.63Q832.06,142.81 832.38,142.97Q832.69,143.13 833,143.25Q833.31,143.38 833.68,143.48Q834.05,143.58 834.47,143.66Q834.89,143.73 835.37,143.79Q835.84,143.84 836.38,143.88Q836.91,143.91 837.55,143.87Q838.2,143.83 838.97,143.72Q839.73,143.61 840.62,143.43Q841.5,143.25 842.5,143Q843.5,142.75 844.32,142.59Q845.14,142.44 845.78,142.38Q846.42,142.31 846.88,142.34Q847.34,142.38 847.63,142.5Q847.91,142.63 848.18,142.82Q848.45,143.02 848.72,143.28Q848.98,143.55 849.24,143.88Q849.5,144.22 849.75,144.63Q850,145.03 850.2,145.48Q850.41,145.92 850.56,146.41Q850.72,146.89 850.83,147.41Q850.94,147.94 851,148.5Q851.06,149.06 851,149.59Q850.94,150.11 850.75,150.59Q850.56,151.08 850.25,151.52Q849.94,151.97 849.5,152.38Q849.06,152.78 848.5,153.15Q847.94,153.52 847.25,153.84Q846.56,154.17 845.75,154.46Q844.94,154.75 844,155Q843.06,155.25 842.09,155.44Q841.13,155.63 840.13,155.75Q839.13,155.88 838.09,155.94Q837.06,156 836,156Q834.94,156 834,155.97Q833.06,155.94 832.25,155.88Q831.44,155.81 830.75,155.72Q830.06,155.63 829.5,155.5Q828.94,155.38 828.34,155.19Q827.73,155 827.09,154.75Q826.45,154.5 825.77,154.19Q825.09,153.88 824.38,153.5Q823.66,153.13 823.01,152.74Q822.36,152.36 821.78,151.97Q821.2,151.58 820.7,151.18Q820.19,150.78 819.75,150.38Q819.31,149.97 818.89,149.52Q818.47,149.06 818.06,148.56Q817.66,148.06 817.27,147.52Q816.88,146.97 816.5,146.38Q816.13,145.78 815.79,145.12Q815.45,144.45 815.16,143.72Q814.86,142.98 814.6,142.18Q814.34,141.38 814.13,140.5Q813.91,139.63 813.74,137.89Q813.58,136.16 813.47,133.56Q813.36,130.97 813.3,127.52Q813.25,124.06 813.25,119.75Q813.25,115.44 813.23,112.18Q813.2,108.92 813.16,106.72Q813.11,104.52 813.04,103.37Q812.97,102.22 812.88,102.13Q812.78,102.03 812.53,101.94Q812.28,101.84 811.88,101.75Q811.47,101.66 810.91,101.56Q810.34,101.47 809.63,101.38Q808.91,101.28 808.3,101.14Q807.7,101 807.22,100.81Q806.73,100.63 806.37,100.39Q806,100.16 805.75,99.88Q805.5,99.59 805.3,99.24Q805.11,98.89 804.97,98.47Q804.83,98.05 804.74,97.55Q804.66,97.06 804.63,96.5Q804.59,95.94 804.6,95.45Q804.61,94.95 804.66,94.53Q804.7,94.11 804.79,93.76Q804.88,93.41 805,93.13Q805.13,92.84 805.28,92.58Q805.44,92.31 805.63,92.06Q805.81,91.81 806.03,91.58Q806.25,91.34 806.5,91.13Q806.75,90.91 807.11,90.71Q807.47,90.52 807.94,90.34Q808.41,90.17 808.98,90.02Q809.56,89.88 810.25,89.75Q810.94,89.63 811.45,89.06Q811.97,88.5 812.31,87.5Q812.66,86.5 812.83,85.06Q813,83.63 813,81.75Q813,79.88 813.03,78.39Q813.06,76.91 813.13,75.81Q813.19,74.72 813.28,74.02Q813.38,73.31 813.5,73Q813.63,72.69 813.8,72.4Q813.97,72.11 814.19,71.84Q814.41,71.58 814.67,71.34Q814.94,71.09 815.25,70.88Q815.56,70.66 815.95,70.5Q816.33,70.34 816.78,70.25Q817.23,70.16 817.76,70.13ZM629.22,88.66Q630.34,88.69 631.63,88.75Q632.91,88.81 634.15,88.95Q635.39,89.09 636.59,89.31Q637.8,89.53 638.96,89.83Q640.13,90.13 641.25,90.5Q642.38,90.88 643.41,91.3Q644.45,91.72 645.41,92.19Q646.36,92.66 647.23,93.17Q648.09,93.69 648.88,94.25Q649.66,94.81 650.27,95.37Q650.88,95.92 651.31,96.47Q651.75,97.02 652.02,97.55Q652.28,98.09 652.38,98.63Q652.47,99.16 652.47,99.66Q652.47,100.16 652.38,100.63Q652.28,101.09 652.09,101.53Q651.91,101.97 651.63,102.38Q651.34,102.78 651,103.14Q650.66,103.5 650.25,103.81Q649.84,104.13 649.38,104.39Q648.91,104.66 648.38,104.88Q647.84,105.09 647.35,105.24Q646.86,105.39 646.41,105.47Q645.95,105.55 645.54,105.55Q645.13,105.56 644.75,105.5Q644.38,105.44 643.93,105.3Q643.48,105.16 642.97,104.94Q642.45,104.72 641.87,104.42Q641.28,104.13 640.63,103.75Q639.97,103.38 639.34,103.05Q638.7,102.73 638.09,102.47Q637.48,102.2 636.9,101.99Q636.31,101.78 635.75,101.63Q635.19,101.47 634.49,101.36Q633.8,101.25 632.97,101.19Q632.14,101.13 631.18,101.11Q630.22,101.09 629.13,101.13Q628.03,101.16 626.98,101.27Q625.94,101.39 624.94,101.59Q623.94,101.8 622.98,102.09Q622.03,102.38 621.13,102.75Q620.22,103.13 619.38,103.58Q618.53,104.03 617.75,104.56Q616.97,105.09 616.25,105.7Q615.53,106.31 614.88,107Q614.22,107.69 613.66,108.35Q613.09,109.02 612.63,109.66Q612.16,110.3 611.78,110.91Q611.41,111.53 611.13,112.13Q610.84,112.72 610.6,113.31Q610.36,113.91 610.16,114.5Q609.95,115.09 609.79,115.69Q609.63,116.28 609.5,116.88Q609.38,117.47 609.28,118.13Q609.19,118.8 609.13,119.53Q609.06,120.27 609.03,121.07Q609,121.88 609,122.75Q609,123.63 609.04,124.45Q609.08,125.27 609.16,126.03Q609.23,126.8 609.35,127.51Q609.47,128.22 609.63,128.88Q609.78,129.53 609.99,130.19Q610.2,130.84 610.47,131.5Q610.73,132.16 611.05,132.81Q611.38,133.47 611.75,134.13Q612.13,134.78 612.52,135.38Q612.91,135.97 613.31,136.5Q613.72,137.03 614.14,137.5Q614.56,137.97 615,138.38Q615.44,138.78 615.93,139.17Q616.42,139.56 616.97,139.94Q617.52,140.31 618.12,140.67Q618.72,141.03 619.38,141.38Q620.03,141.72 620.66,142.01Q621.28,142.3 621.88,142.53Q622.47,142.77 623.03,142.95Q623.59,143.13 624.13,143.25Q624.66,143.38 625.35,143.45Q626.05,143.52 626.91,143.53Q627.77,143.55 628.79,143.51Q629.81,143.47 631,143.38Q632.19,143.28 633.23,143.15Q634.28,143.02 635.19,142.84Q636.09,142.67 636.86,142.46Q637.63,142.25 638.25,142Q638.88,141.75 639.48,141.48Q640.08,141.2 640.66,140.91Q641.23,140.61 641.79,140.29Q642.34,139.97 642.88,139.63Q643.41,139.28 643.89,139.04Q644.38,138.8 644.81,138.66Q645.25,138.52 645.64,138.48Q646.03,138.44 646.38,138.5Q646.72,138.56 647.07,138.65Q647.42,138.73 647.78,138.84Q648.14,138.95 648.51,139.09Q648.88,139.22 649.25,139.38Q649.63,139.53 649.98,139.76Q650.33,139.98 650.66,140.28Q650.98,140.58 651.29,140.95Q651.59,141.31 651.88,141.75Q652.16,142.19 652.34,142.64Q652.53,143.09 652.63,143.56Q652.72,144.03 652.72,144.52Q652.72,145 652.63,145.5Q652.53,146 652.34,146.48Q652.16,146.97 651.88,147.44Q651.59,147.91 651.22,148.36Q650.84,148.81 650.38,149.25Q649.91,149.69 649.37,150.11Q648.83,150.53 648.22,150.94Q647.61,151.34 646.93,151.73Q646.25,152.13 645.5,152.5Q644.75,152.88 643.97,153.21Q643.19,153.55 642.38,153.84Q641.56,154.14 640.72,154.4Q639.88,154.66 639,154.88Q638.13,155.09 637.09,155.27Q636.05,155.44 634.84,155.56Q633.64,155.69 632.27,155.77Q630.91,155.84 629.38,155.88Q627.84,155.91 626.46,155.87Q625.08,155.83 623.84,155.72Q622.61,155.61 621.52,155.43Q620.44,155.25 619.5,155Q618.56,154.75 617.63,154.44Q616.69,154.13 615.75,153.75Q614.81,153.38 613.88,152.94Q612.94,152.5 612,152Q611.06,151.5 610.16,150.93Q609.25,150.36 608.38,149.72Q607.5,149.08 606.66,148.37Q605.81,147.66 605,146.88Q604.19,146.09 603.46,145.31Q602.73,144.53 602.09,143.75Q601.45,142.97 600.9,142.19Q600.34,141.41 599.88,140.63Q599.41,139.84 598.99,139.08Q598.58,138.31 598.22,137.56Q597.86,136.81 597.55,136.08Q597.25,135.34 597,134.63Q596.75,133.91 596.53,133.05Q596.31,132.19 596.13,131.19Q595.94,130.19 595.78,129.05Q595.63,127.91 595.5,126.63Q595.38,125.34 595.31,124.13Q595.25,122.91 595.25,121.75Q595.25,120.59 595.31,119.5Q595.38,118.41 595.5,117.38Q595.63,116.34 595.82,115.31Q596.02,114.28 596.28,113.25Q596.55,112.22 596.88,111.19Q597.22,110.16 597.63,109.13Q598.03,108.09 598.52,107.08Q599.02,106.06 599.59,105.06Q600.17,104.06 600.84,103.08Q601.5,102.09 602.25,101.13Q603,100.16 603.78,99.27Q604.56,98.39 605.38,97.59Q606.19,96.8 607.03,96.09Q607.88,95.38 608.75,94.75Q609.63,94.13 610.56,93.55Q611.5,92.98 612.5,92.47Q613.5,91.95 614.56,91.49Q615.63,91.03 616.75,90.63Q617.88,90.22 618.88,89.9Q619.89,89.58 620.78,89.34Q621.67,89.11 622.45,88.96Q623.22,88.81 623.88,88.75Q624.53,88.69 625.34,88.66Q626.16,88.63 627.13,88.63Q628.09,88.63 629.22,88.66ZM693.08,88.55Q693.94,88.5 694.75,88.5Q695.56,88.5 696.41,88.55Q697.27,88.59 698.16,88.69Q699.05,88.78 699.98,88.92Q700.91,89.06 701.88,89.25Q702.84,89.44 703.78,89.68Q704.72,89.92 705.63,90.22Q706.53,90.52 707.41,90.87Q708.28,91.22 709.13,91.63Q709.97,92.03 710.78,92.48Q711.59,92.94 712.38,93.44Q713.16,93.94 713.91,94.48Q714.66,95.03 715.38,95.63Q716.09,96.22 716.75,96.83Q717.41,97.44 718,98.06Q718.59,98.69 719.13,99.33Q719.66,99.97 720.13,100.63Q720.59,101.28 721.04,102Q721.48,102.72 721.91,103.5Q722.33,104.28 722.73,105.13Q723.13,105.97 723.5,106.88Q723.88,107.78 724.19,108.63Q724.5,109.47 724.75,110.25Q725,111.03 725.19,111.75Q725.38,112.47 725.5,113.13Q725.63,113.78 725.72,114.52Q725.81,115.25 725.88,116.06Q725.94,116.88 725.97,117.77Q726,118.66 726,119.63Q726,120.59 725.93,121.43Q725.86,122.27 725.72,122.97Q725.58,123.67 725.37,124.24Q725.16,124.81 724.88,125.25Q724.59,125.69 724.27,126.04Q723.94,126.39 723.56,126.66Q723.19,126.92 722.77,127.1Q722.34,127.28 721.88,127.38Q721.41,127.47 719.72,127.54Q718.03,127.61 715.13,127.66Q712.22,127.7 708.09,127.73Q703.97,127.75 698.63,127.75Q693.28,127.75 689.27,127.88Q685.27,128.02 682.59,128.28Q679.92,128.55 678.59,128.95Q677.25,129.34 677.25,129.88Q677.25,130.41 677.3,130.91Q677.36,131.42 677.47,131.91Q677.58,132.39 677.74,132.85Q677.91,133.31 678.13,133.75Q678.34,134.19 678.63,134.65Q678.91,135.11 679.25,135.59Q679.59,136.08 680,136.59Q680.41,137.09 680.88,137.63Q681.34,138.16 681.79,138.62Q682.23,139.08 682.66,139.47Q683.08,139.86 683.48,140.18Q683.88,140.5 684.25,140.75Q684.63,141 685.11,141.25Q685.59,141.5 686.19,141.75Q686.78,142 687.48,142.25Q688.19,142.5 689,142.75Q689.81,143 690.63,143.2Q691.44,143.39 692.25,143.53Q693.06,143.67 693.88,143.76Q694.69,143.84 695.5,143.88Q696.31,143.91 697.09,143.9Q697.88,143.89 698.63,143.84Q699.38,143.8 700.09,143.71Q700.81,143.63 701.5,143.5Q702.19,143.38 702.97,143.15Q703.75,142.92 704.63,142.59Q705.5,142.27 706.47,141.84Q707.44,141.41 708.5,140.88Q709.56,140.34 710.51,139.98Q711.45,139.63 712.28,139.44Q713.11,139.25 713.82,139.23Q714.53,139.22 715.13,139.38Q715.72,139.53 716.25,139.74Q716.78,139.95 717.25,140.22Q717.72,140.48 718.13,140.8Q718.53,141.13 718.88,141.5Q719.22,141.88 719.49,142.27Q719.77,142.67 719.97,143.09Q720.17,143.52 720.3,143.96Q720.44,144.41 720.5,144.88Q720.56,145.34 720.53,145.8Q720.5,146.25 720.38,146.69Q720.25,147.13 720.03,147.55Q719.81,147.97 719.5,148.38Q719.19,148.78 718.6,149.24Q718.02,149.7 717.16,150.22Q716.3,150.73 715.16,151.3Q714.03,151.88 712.63,152.5Q711.22,153.13 709.73,153.63Q708.25,154.14 706.69,154.53Q705.13,154.92 703.48,155.2Q701.84,155.47 700.13,155.63Q698.41,155.78 696.87,155.86Q695.33,155.94 693.97,155.94Q692.61,155.94 691.43,155.86Q690.25,155.78 689.25,155.63Q688.25,155.47 687.22,155.23Q686.19,154.98 685.13,154.66Q684.06,154.33 682.97,153.91Q681.88,153.5 680.75,153Q679.63,152.5 678.58,151.95Q677.53,151.39 676.56,150.78Q675.59,150.17 674.7,149.51Q673.81,148.84 673,148.13Q672.19,147.41 671.43,146.63Q670.67,145.84 669.97,145Q669.27,144.16 668.62,143.25Q667.97,142.34 667.38,141.38Q666.78,140.41 666.25,139.38Q665.72,138.34 665.25,137.25Q664.78,136.16 664.38,135Q663.97,133.84 663.63,132.63Q663.28,131.41 663.02,130.17Q662.77,128.94 662.59,127.69Q662.42,126.44 662.34,125.17Q662.25,123.91 662.25,122.63Q662.25,121.34 662.27,120.23Q662.3,119.13 662.34,118.19Q662.39,117.25 662.46,116.48Q662.53,115.72 662.63,115.13Q662.72,114.53 662.88,113.84Q663.05,113.16 663.28,112.38Q663.52,111.59 663.82,110.72Q664.13,109.84 664.5,108.88Q664.88,107.91 665.28,106.99Q665.69,106.08 666.13,105.22Q666.56,104.36 667.03,103.55Q667.5,102.75 668,102Q668.5,101.25 669.09,100.51Q669.67,99.77 670.34,99.03Q671.02,98.3 671.77,97.57Q672.53,96.84 673.38,96.13Q674.22,95.41 675.06,94.77Q675.91,94.13 676.75,93.56Q677.59,93 678.44,92.52Q679.28,92.03 680.13,91.63Q680.97,91.22 681.85,90.87Q682.73,90.52 683.66,90.22Q684.58,89.92 685.54,89.68Q686.5,89.44 687.5,89.25Q688.5,89.06 689.45,88.92Q690.41,88.78 691.31,88.69Q692.22,88.59 693.08,88.55ZM771.22,88.69Q772.41,88.69 773.63,88.75Q774.84,88.81 776.03,88.96Q777.22,89.11 778.38,89.34Q779.53,89.58 780.66,89.9Q781.78,90.22 782.88,90.63Q783.97,91.03 784.97,91.49Q785.97,91.95 786.88,92.47Q787.78,92.98 788.59,93.55Q789.41,94.13 790.13,94.75Q790.84,95.38 791.48,96Q792.11,96.63 792.66,97.25Q793.2,97.88 793.66,98.5Q794.13,99.13 794.5,99.75Q794.88,100.38 795.22,101.02Q795.56,101.66 795.88,102.31Q796.19,102.97 796.47,103.64Q796.75,104.31 797,105Q797.25,105.69 797.45,106.33Q797.66,106.97 797.81,107.56Q797.97,108.16 798.08,108.7Q798.19,109.25 798.25,109.75Q798.31,110.25 798.35,111.91Q798.39,113.58 798.41,116.41Q798.42,119.23 798.41,123.23Q798.41,127.22 798.38,132.38Q798.34,137.53 798.25,141.46Q798.16,145.39 798,148.09Q797.84,150.8 797.63,152.27Q797.41,153.75 797.13,154Q796.84,154.25 796.45,154.44Q796.06,154.63 795.56,154.75Q795.06,154.88 794.45,154.94Q793.84,155 793.13,155Q792.41,155 791.77,154.94Q791.13,154.88 790.56,154.75Q790,154.63 789.52,154.44Q789.03,154.25 788.63,154Q788.22,153.75 787.85,153.46Q787.48,153.17 787.16,152.84Q786.83,152.52 786.54,152.15Q786.25,151.78 786,151.38Q785.75,150.97 785.56,149.56Q785.38,148.16 785.25,145.75Q785.13,143.34 785.06,139.94Q785,136.53 785,132.13Q785,127.72 784.93,124.19Q784.86,120.66 784.72,118Q784.58,115.34 784.37,113.56Q784.16,111.78 783.88,110.88Q783.59,109.97 783.26,109.16Q782.92,108.34 782.53,107.63Q782.14,106.91 781.7,106.28Q781.25,105.66 780.75,105.13Q780.25,104.59 779.74,104.14Q779.23,103.69 778.72,103.31Q778.2,102.94 777.68,102.64Q777.16,102.34 776.63,102.13Q776.09,101.91 775.38,101.74Q774.66,101.58 773.75,101.47Q772.84,101.36 771.75,101.3Q770.66,101.25 769.38,101.25Q768.09,101.25 767.02,101.27Q765.95,101.3 765.09,101.34Q764.23,101.39 763.59,101.46Q762.94,101.53 762.5,101.63Q762.06,101.72 761.62,101.85Q761.17,101.98 760.72,102.16Q760.27,102.33 759.8,102.54Q759.34,102.75 758.88,103Q758.41,103.25 757.96,103.52Q757.52,103.8 757.09,104.09Q756.67,104.39 756.27,104.71Q755.88,105.03 755.5,105.38Q755.13,105.72 754.78,106.08Q754.44,106.44 754.13,106.81Q753.81,107.19 753.53,107.58Q753.25,107.97 753,108.38Q752.75,108.78 752.54,109.17Q752.33,109.56 752.16,109.94Q751.98,110.31 751.85,110.67Q751.72,111.03 751.63,111.38Q751.53,111.72 751.46,113.21Q751.39,114.7 751.34,117.34Q751.3,119.98 751.27,123.77Q751.25,127.56 751.25,132.5Q751.25,137.44 751.17,141.23Q751.09,145.02 750.94,147.66Q750.78,150.3 750.55,151.79Q750.31,153.28 750,153.63Q749.69,153.97 749.26,154.23Q748.83,154.48 748.28,154.66Q747.73,154.83 747.07,154.91Q746.41,155 745.63,155Q744.84,155 744.15,154.92Q743.45,154.84 742.84,154.69Q742.23,154.53 741.71,154.3Q741.19,154.06 740.75,153.75Q740.31,153.44 739.95,153.1Q739.58,152.77 739.28,152.41Q738.98,152.05 738.76,151.66Q738.53,151.28 738.38,150.88Q738.22,150.47 738.11,148.55Q738,146.64 737.94,143.22Q737.88,139.8 737.86,134.87Q737.84,129.94 737.88,123.5Q737.91,117.06 737.98,112.13Q738.06,107.19 738.19,103.75Q738.31,100.31 738.48,98.38Q738.66,96.44 738.88,96Q739.09,95.56 739.33,95.16Q739.56,94.77 739.81,94.41Q740.06,94.05 740.33,93.73Q740.59,93.41 740.88,93.13Q741.16,92.84 741.5,92.57Q741.84,92.3 742.25,92.03Q742.66,91.77 743.13,91.51Q743.59,91.25 744.13,91Q744.66,90.75 745.16,90.56Q745.66,90.38 746.13,90.25Q746.59,90.13 747.03,90.06Q747.47,90 747.88,90Q748.28,90 748.63,90.05Q748.98,90.09 749.28,90.19Q749.58,90.28 749.82,90.42Q750.06,90.56 750.25,90.75Q750.44,90.94 750.58,91.15Q750.72,91.36 750.81,91.59Q750.91,91.83 750.95,92.09Q751,92.34 751,92.63Q751,92.91 751.04,93.13Q751.08,93.34 751.16,93.5Q751.23,93.66 751.35,93.75Q751.47,93.84 751.63,93.88Q751.78,93.91 751.97,93.88Q752.16,93.84 752.38,93.75Q752.59,93.66 752.84,93.5Q753.09,93.34 753.38,93.13Q753.66,92.91 754.04,92.67Q754.42,92.44 754.91,92.19Q755.39,91.94 755.98,91.67Q756.56,91.41 757.25,91.13Q757.94,90.84 758.73,90.59Q759.52,90.33 760.41,90.09Q761.3,89.86 762.29,89.65Q763.28,89.44 764.38,89.25Q765.47,89.06 766.59,88.94Q767.72,88.81 768.88,88.75Q770.03,88.69 771.22,88.69ZM886.93,88.69Q888.31,88.69 889.75,88.75Q891.19,88.81 892.47,88.92Q893.75,89.03 894.88,89.19Q896,89.34 896.97,89.55Q897.94,89.75 898.75,90Q899.56,90.25 900.38,90.57Q901.2,90.89 902.03,91.28Q902.86,91.67 903.7,92.13Q904.53,92.59 905.38,93.13Q906.22,93.66 907.02,94.27Q907.81,94.89 908.56,95.59Q909.31,96.3 910.02,97.09Q910.72,97.88 911.38,98.75Q912.03,99.63 912.59,100.45Q913.14,101.28 913.59,102.06Q914.05,102.84 914.4,103.58Q914.75,104.31 915,105Q915.25,105.69 915.45,106.34Q915.66,106.98 915.81,107.59Q915.97,108.2 916.08,108.77Q916.19,109.34 916.25,109.88Q916.31,110.41 916.34,111.95Q916.38,113.5 916.38,116.06Q916.38,118.63 916.34,122.2Q916.31,125.78 916.25,130.38Q916.19,134.97 916.05,138.55Q915.91,142.13 915.69,144.69Q915.47,147.25 915.17,148.8Q914.88,150.34 914.5,150.88Q914.13,151.41 913.71,151.87Q913.3,152.33 912.84,152.72Q912.39,153.11 911.9,153.43Q911.41,153.75 910.88,154Q910.34,154.25 909.83,154.43Q909.31,154.61 908.81,154.72Q908.31,154.83 907.83,154.87Q907.34,154.91 906.88,154.88Q906.41,154.84 906.02,154.76Q905.63,154.67 905.31,154.53Q905,154.39 904.77,154.2Q904.53,154 904.38,153.75Q904.22,153.5 904.1,153.23Q903.98,152.97 903.91,152.69Q903.83,152.41 903.79,152.11Q903.75,151.81 903.75,151.5Q903.75,151.19 903.73,150.95Q903.7,150.7 903.66,150.53Q903.61,150.36 903.54,150.26Q903.47,150.16 903.38,150.13Q903.28,150.09 903.14,150.13Q903,150.17 902.81,150.28Q902.63,150.39 902.39,150.57Q902.16,150.75 901.88,151Q901.59,151.25 901.18,151.53Q900.77,151.81 900.22,152.13Q899.67,152.44 898.99,152.78Q898.31,153.13 897.5,153.5Q896.69,153.88 895.94,154.19Q895.19,154.5 894.5,154.75Q893.81,155 893.19,155.19Q892.56,155.38 892,155.5Q891.44,155.63 890.73,155.73Q890.03,155.83 889.19,155.91Q888.34,155.98 887.36,156.04Q886.38,156.09 885.25,156.13Q884.13,156.16 883.02,156.14Q881.92,156.13 880.84,156.06Q879.77,156 878.71,155.89Q877.66,155.78 876.63,155.63Q875.59,155.47 874.68,155.29Q873.77,155.11 872.97,154.91Q872.17,154.7 871.49,154.48Q870.81,154.25 870.25,154Q869.69,153.75 869.15,153.48Q868.61,153.2 868.09,152.91Q867.58,152.61 867.09,152.29Q866.59,151.97 866.13,151.63Q865.66,151.28 865.2,150.9Q864.75,150.52 864.31,150.09Q863.88,149.67 863.45,149.21Q863.03,148.75 862.63,148.25Q862.22,147.75 861.83,147.17Q861.44,146.59 861.06,145.94Q860.69,145.28 860.33,144.55Q859.97,143.81 859.63,143Q859.28,142.19 859.02,141.34Q858.75,140.5 858.56,139.63Q858.38,138.75 858.27,137.84Q858.16,136.94 858.13,136Q858.09,135.06 858.13,134.17Q858.17,133.28 858.28,132.44Q858.39,131.59 858.57,130.8Q858.75,130 859,129.25Q859.25,128.5 859.59,127.77Q859.92,127.03 860.34,126.31Q860.77,125.59 861.27,124.89Q861.78,124.19 862.38,123.5Q862.97,122.81 863.61,122.18Q864.25,121.55 864.94,120.97Q865.63,120.39 866.36,119.87Q867.09,119.34 867.88,118.88Q868.66,118.41 869.48,117.99Q870.31,117.58 871.19,117.22Q872.06,116.86 872.98,116.55Q873.91,116.25 874.88,116Q875.84,115.75 877.33,115.55Q878.81,115.34 880.81,115.19Q882.81,115.03 885.33,114.92Q887.84,114.81 890.88,114.75Q893.91,114.69 896.15,114.46Q898.39,114.23 899.84,113.84Q901.3,113.45 901.96,112.9Q902.63,112.34 902.5,111.63Q902.38,110.91 902.22,110.26Q902.06,109.61 901.88,109.03Q901.69,108.45 901.47,107.95Q901.25,107.44 901,107Q900.75,106.56 900.49,106.17Q900.23,105.78 899.97,105.44Q899.7,105.09 899.43,104.8Q899.16,104.5 898.88,104.25Q898.59,104 898.23,103.75Q897.88,103.5 897.44,103.25Q897,103 896.48,102.75Q895.97,102.5 895.38,102.25Q894.78,102 893.95,101.8Q893.13,101.61 892.06,101.47Q891,101.33 889.7,101.24Q888.41,101.16 886.88,101.13Q885.34,101.09 884.05,101.11Q882.75,101.13 881.69,101.19Q880.63,101.25 879.8,101.36Q878.97,101.47 878.38,101.63Q877.78,101.78 877.16,101.98Q876.55,102.19 875.91,102.44Q875.27,102.69 874.6,102.98Q873.94,103.28 873.25,103.63Q872.56,103.97 871.96,104.22Q871.36,104.47 870.84,104.63Q870.33,104.78 869.9,104.84Q869.47,104.91 869.13,104.88Q868.78,104.84 868.41,104.73Q868.03,104.63 867.63,104.44Q867.22,104.25 866.78,103.98Q866.34,103.72 865.88,103.38Q865.41,103.03 865.02,102.7Q864.63,102.36 864.31,102.03Q864,101.7 863.77,101.38Q863.53,101.06 863.38,100.75Q863.22,100.44 863.1,100.12Q862.98,99.8 862.91,99.47Q862.83,99.14 862.79,98.8Q862.75,98.47 862.75,98.13Q862.75,97.78 862.85,97.41Q862.95,97.05 863.16,96.66Q863.36,96.27 863.66,95.85Q863.97,95.44 864.38,95Q864.78,94.56 865.34,94.13Q865.91,93.7 866.63,93.28Q867.34,92.86 868.22,92.45Q869.09,92.03 870.13,91.63Q871.16,91.22 872.23,90.87Q873.31,90.52 874.44,90.22Q875.56,89.92 876.73,89.68Q877.91,89.44 879.13,89.25Q880.34,89.06 881.62,88.94Q882.89,88.81 884.22,88.75Q885.55,88.69 886.93,88.69ZM956.36,88.55Q957.16,88.5 957.88,88.5Q958.59,88.5 959.38,88.55Q960.16,88.59 961,88.69Q961.84,88.78 962.75,88.92Q963.66,89.06 964.63,89.25Q965.59,89.44 966.38,89.64Q967.16,89.84 967.75,90.06Q968.34,90.28 968.75,90.52Q969.16,90.75 969.38,91Q969.59,91.25 969.77,91.58Q969.95,91.91 970.09,92.31Q970.23,92.72 970.34,93.2Q970.44,93.69 970.5,94.25Q970.56,94.81 970.56,95.34Q970.56,95.88 970.5,96.38Q970.44,96.88 970.31,97.34Q970.19,97.81 970,98.25Q969.81,98.69 969.58,99.07Q969.34,99.45 969.06,99.78Q968.78,100.11 968.45,100.38Q968.13,100.66 967.75,100.88Q967.38,101.09 966.74,101.23Q966.11,101.38 965.22,101.44Q964.33,101.5 963.18,101.48Q962.03,101.47 960.63,101.38Q959.22,101.28 958.03,101.25Q956.84,101.22 955.88,101.25Q954.91,101.28 954.16,101.38Q953.41,101.47 952.88,101.63Q952.34,101.78 951.85,101.95Q951.36,102.13 950.91,102.31Q950.45,102.5 950.04,102.7Q949.63,102.91 949.25,103.13Q948.88,103.34 948.48,103.65Q948.09,103.95 947.69,104.34Q947.28,104.73 946.86,105.21Q946.44,105.69 946,106.25Q945.56,106.81 945.2,107.39Q944.84,107.97 944.56,108.56Q944.28,109.16 944.08,109.77Q943.88,110.38 943.75,111Q943.63,111.63 943.54,113.29Q943.45,114.95 943.41,117.66Q943.36,120.36 943.35,124.1Q943.34,127.84 943.38,132.63Q943.41,137.41 943.41,141.04Q943.42,144.67 943.41,147.16Q943.39,149.64 943.35,150.98Q943.31,152.31 943.25,152.5Q943.19,152.69 943.07,152.88Q942.95,153.08 942.78,153.28Q942.61,153.48 942.38,153.7Q942.16,153.91 941.88,154.13Q941.59,154.34 941.2,154.51Q940.81,154.67 940.31,154.78Q939.81,154.89 939.2,154.95Q938.59,155 937.88,155Q937.16,155 936.52,154.94Q935.89,154.88 935.34,154.75Q934.8,154.63 934.34,154.44Q933.88,154.25 933.5,154Q933.13,153.75 932.78,153.43Q932.44,153.11 932.13,152.72Q931.81,152.33 931.53,151.87Q931.25,151.41 931,150.88Q930.75,150.34 930.56,148.68Q930.38,147.02 930.25,144.22Q930.13,141.42 930.06,137.49Q930,133.56 930,128.5Q930,123.44 930.07,119.42Q930.14,115.41 930.28,112.44Q930.42,109.47 930.63,107.55Q930.84,105.63 931.13,104.75Q931.41,103.88 931.7,103.1Q931.98,102.33 932.28,101.66Q932.58,100.98 932.88,100.41Q933.19,99.84 933.5,99.38Q933.81,98.91 934.16,98.45Q934.52,97.98 934.91,97.53Q935.3,97.08 935.73,96.63Q936.16,96.19 936.63,95.75Q937.09,95.31 937.7,94.86Q938.31,94.41 939.06,93.94Q939.81,93.47 940.7,92.98Q941.59,92.5 942.63,92Q943.66,91.5 944.69,91.08Q945.72,90.66 946.75,90.31Q947.78,89.97 948.81,89.7Q949.84,89.44 950.88,89.25Q951.91,89.06 952.86,88.92Q953.81,88.78 954.69,88.69Q955.56,88.59 956.36,88.55ZM691.24,101.11Q690.53,101.22 689.88,101.38Q689.22,101.53 688.58,101.73Q687.94,101.94 687.31,102.19Q686.69,102.44 686.08,102.73Q685.47,103.03 684.88,103.38Q684.28,103.72 683.7,104.14Q683.13,104.56 682.56,105.06Q682,105.56 681.45,106.14Q680.91,106.72 680.38,107.38Q679.84,108.03 679.4,108.7Q678.95,109.38 678.59,110.06Q678.23,110.75 677.96,111.45Q677.69,112.16 677.5,112.88Q677.31,113.59 677.79,114.14Q678.27,114.69 679.41,115.06Q680.55,115.44 682.35,115.64Q684.16,115.84 686.63,115.88Q689.09,115.91 691.41,115.94Q693.73,115.97 695.91,116Q698.08,116.03 700.1,116.06Q702.13,116.09 704,116.13Q705.88,116.16 707.29,116.08Q708.7,116 709.66,115.81Q710.61,115.63 711.1,115.33Q711.59,115.03 711.63,114.63Q711.66,114.22 711.59,113.73Q711.53,113.25 711.38,112.69Q711.22,112.13 710.97,111.48Q710.72,110.84 710.38,110.13Q710.03,109.41 709.64,108.74Q709.25,108.08 708.81,107.47Q708.38,106.86 707.89,106.3Q707.41,105.75 706.88,105.25Q706.34,104.75 705.78,104.3Q705.22,103.86 704.63,103.47Q704.03,103.08 703.41,102.74Q702.78,102.41 702.13,102.13Q701.47,101.84 700.76,101.63Q700.05,101.41 699.28,101.25Q698.52,101.09 697.7,101Q696.88,100.91 696,100.88Q695.13,100.84 694.3,100.86Q693.48,100.88 692.72,100.94Q691.95,101 691.24,101.11ZM883.46,126.48Q882.34,126.53 881.63,126.63Q880.91,126.72 880.25,126.85Q879.59,126.98 879,127.16Q878.41,127.33 877.88,127.54Q877.34,127.75 876.88,128Q876.41,128.25 875.97,128.58Q875.53,128.91 875.13,129.31Q874.72,129.72 874.34,130.2Q873.97,130.69 873.63,131.25Q873.28,131.81 873.02,132.36Q872.77,132.91 872.59,133.44Q872.42,133.97 872.34,134.48Q872.25,135 872.25,135.5Q872.25,136 872.3,136.48Q872.36,136.97 872.47,137.44Q872.58,137.91 872.74,138.36Q872.91,138.81 873.13,139.25Q873.34,139.69 873.63,140.1Q873.92,140.52 874.28,140.91Q874.64,141.3 875.07,141.66Q875.5,142.03 876,142.38Q876.5,142.72 877.06,143.01Q877.63,143.3 878.25,143.53Q878.88,143.77 879.56,143.95Q880.25,144.13 881,144.25Q881.75,144.38 882.5,144.45Q883.25,144.52 884,144.53Q884.75,144.55 885.5,144.51Q886.25,144.47 887,144.38Q887.75,144.28 888.48,144.18Q889.2,144.08 889.91,143.97Q890.61,143.86 891.29,143.74Q891.97,143.63 892.63,143.5Q893.28,143.38 893.88,143.22Q894.48,143.06 895.03,142.88Q895.58,142.69 896.07,142.47Q896.56,142.25 897,142Q897.44,141.75 897.84,141.48Q898.23,141.22 898.59,140.94Q898.95,140.66 899.27,140.36Q899.59,140.06 899.88,139.75Q900.16,139.44 900.43,139.08Q900.7,138.72 900.97,138.31Q901.23,137.91 901.49,137.45Q901.75,137 902,136.5Q902.25,136 902.44,135.38Q902.63,134.77 902.75,134.03Q902.88,133.3 902.94,132.45Q903,131.59 903,130.63Q903,129.66 902.42,128.91Q901.84,128.17 900.69,127.66Q899.53,127.14 897.8,126.85Q896.06,126.56 893.75,126.5Q891.44,126.44 889.52,126.41Q887.61,126.39 886.09,126.41Q884.58,126.42 883.46,126.48Z"></path><path fill="#4DBD45" fill-rule="evenodd" d="M112.22,20.05Q113.59,20 114.88,20Q116.16,20 117.55,20.06Q118.95,20.13 120.47,20.25Q121.98,20.38 123.62,20.56Q125.25,20.75 127,21Q128.75,21.25 130.48,21.56Q132.2,21.88 133.91,22.25Q135.61,22.63 137.29,23.06Q138.97,23.5 140.63,24Q142.28,24.5 143.8,25Q145.33,25.5 146.72,26Q148.11,26.5 149.37,27Q150.63,27.5 151.75,28Q152.88,28.5 154.12,29.13Q155.36,29.75 156.72,30.5Q158.08,31.25 159.55,32.13Q161.03,33 162.63,34Q164.22,35 165.7,35.99Q167.19,36.98 168.56,37.97Q169.94,38.95 171.2,39.93Q172.47,40.91 173.63,41.88Q174.78,42.84 175.95,43.91Q177.13,44.98 178.31,46.16Q179.5,47.33 180.7,48.6Q181.91,49.88 183.13,51.25Q184.34,52.63 185.5,54.02Q186.66,55.42 187.75,56.84Q188.84,58.27 189.88,59.71Q190.91,61.16 191.88,62.63Q192.84,64.09 193.77,65.61Q194.69,67.13 195.56,68.69Q196.44,70.25 197.27,71.86Q198.09,73.47 198.88,75.13Q199.66,76.78 200.37,78.41Q201.08,80.05 201.72,81.66Q202.36,83.27 202.93,84.85Q203.5,86.44 204,88Q204.5,89.56 204.95,91.19Q205.39,92.81 205.78,94.5Q206.17,96.19 206.51,97.94Q206.84,99.69 207.13,101.5Q207.41,103.31 207.62,105.14Q207.83,106.97 207.97,108.81Q208.11,110.66 208.18,112.52Q208.25,114.38 208.25,116.25Q208.25,118.13 208.15,120.12Q208.05,122.11 207.84,124.22Q207.64,126.33 207.34,128.55Q207.03,130.78 206.63,133.13Q206.22,135.47 205.7,137.76Q205.17,140.05 204.53,142.28Q203.89,144.52 203.13,146.7Q202.38,148.88 201.5,151Q200.63,153.13 199.63,155.2Q198.64,157.28 197.53,159.31Q196.42,161.34 195.2,163.33Q193.97,165.31 192.63,167.25Q191.28,169.19 190.03,170.9Q188.78,172.61 187.63,174.09Q186.47,175.58 185.41,176.84Q184.34,178.09 183.38,179.13Q182.41,180.16 181.49,181.09Q180.58,182.02 179.72,182.84Q178.86,183.67 178.05,184.4Q177.25,185.13 176.5,185.75Q175.75,186.38 175.16,186.85Q174.56,187.33 174.13,187.66Q173.69,187.98 173.41,188.16Q173.13,188.34 173,188.38Q172.88,188.41 172.77,188.39Q172.67,188.38 172.59,188.31Q172.52,188.25 172.46,188.14Q172.41,188.03 172.38,187.88Q172.34,187.72 172.62,187.27Q172.89,186.81 173.47,186.06Q174.05,185.31 174.93,184.27Q175.81,183.22 177,181.88Q178.19,180.53 179.32,179.09Q180.45,177.66 181.53,176.13Q182.61,174.59 183.63,172.97Q184.66,171.34 185.63,169.63Q186.59,167.91 187.42,166.38Q188.25,164.86 188.94,163.53Q189.63,162.2 190.17,161.07Q190.72,159.94 191.13,159Q191.53,158.06 191.96,156.88Q192.39,155.69 192.84,154.25Q193.3,152.81 193.77,151.13Q194.25,149.44 194.75,147.5Q195.25,145.56 195.66,143.85Q196.06,142.14 196.38,140.66Q196.69,139.17 196.91,137.91Q197.13,136.66 197.25,135.63Q197.38,134.59 197.47,133.46Q197.56,132.33 197.63,131.09Q197.69,129.86 197.72,128.52Q197.75,127.19 197.75,125.75Q197.75,124.31 197.72,122.95Q197.69,121.58 197.63,120.28Q197.56,118.98 197.47,117.76Q197.38,116.53 197.25,115.38Q197.13,114.22 196.91,112.84Q196.69,111.45 196.38,109.84Q196.06,108.23 195.66,106.4Q195.25,104.56 194.75,102.5Q194.25,100.44 193.72,98.51Q193.19,96.58 192.63,94.78Q192.06,92.98 191.47,91.32Q190.88,89.66 190.25,88.13Q189.63,86.59 188.91,85.02Q188.19,83.45 187.38,81.84Q186.56,80.23 185.66,78.59Q184.75,76.94 183.75,75.25Q182.75,73.56 181.75,71.98Q180.75,70.41 179.75,68.94Q178.75,67.47 177.75,66.11Q176.75,64.75 175.75,63.5Q174.75,62.25 173.66,60.99Q172.58,59.73 171.41,58.47Q170.23,57.2 168.98,55.93Q167.72,54.66 166.38,53.38Q165.03,52.09 163.67,50.89Q162.31,49.69 160.94,48.56Q159.56,47.44 158.17,46.39Q156.78,45.34 155.38,44.38Q153.97,43.41 152.53,42.48Q151.09,41.56 149.63,40.69Q148.16,39.81 146.66,38.98Q145.16,38.16 143.63,37.38Q142.09,36.59 140.48,35.85Q138.88,35.11 137.19,34.41Q135.5,33.7 133.73,33.04Q131.97,32.38 130.13,31.75Q128.28,31.13 126.52,30.59Q124.77,30.06 123.09,29.63Q121.42,29.19 119.84,28.84Q118.25,28.5 116.75,28.25Q115.25,28 113.55,27.81Q111.86,27.63 109.97,27.5Q108.08,27.38 105.99,27.31Q103.91,27.25 101.63,27.25Q99.34,27.25 97.17,27.34Q95,27.44 92.94,27.63Q90.88,27.81 88.92,28.09Q86.97,28.38 85.13,28.75Q83.28,29.13 81.55,29.55Q79.81,29.98 78.19,30.47Q76.56,30.95 75.05,31.49Q73.53,32.03 72.13,32.63Q70.72,33.22 69.6,33.66Q68.48,34.11 67.66,34.41Q66.83,34.7 66.29,34.85Q65.75,35 65.5,35Q65.25,35 65.1,34.95Q64.95,34.89 64.91,34.78Q64.86,34.67 64.91,34.51Q64.97,34.34 65.13,34.13Q65.28,33.91 65.52,33.67Q65.75,33.44 66.06,33.19Q66.38,32.94 66.77,32.67Q67.16,32.41 67.63,32.13Q68.09,31.84 68.91,31.44Q69.73,31.03 70.91,30.5Q72.08,29.97 73.6,29.31Q75.13,28.66 77,27.88Q78.88,27.09 80.66,26.41Q82.44,25.73 84.13,25.16Q85.81,24.58 87.41,24.1Q89,23.63 90.5,23.25Q92,22.88 93.54,22.54Q95.08,22.2 96.66,21.91Q98.23,21.61 99.85,21.35Q101.47,21.09 103.13,20.88Q104.78,20.66 106.34,20.49Q107.91,20.33 109.38,20.22Q110.84,20.11 112.22,20.05ZM96.43,54.88Q96.66,54.84 96.88,54.88Q97.09,54.91 97.3,54.98Q97.52,55.05 97.72,55.16Q97.92,55.27 98.12,55.41Q98.31,55.56 98.5,55.75Q98.69,55.94 98.98,56.37Q99.28,56.8 99.69,57.47Q100.09,58.14 100.61,59.05Q101.13,59.97 101.75,61.13Q102.38,62.28 103.37,63.78Q104.36,65.28 105.72,67.13Q107.08,68.97 108.8,71.16Q110.53,73.34 112.63,75.88Q114.72,78.41 116.41,80.53Q118.11,82.66 119.41,84.38Q120.7,86.09 121.6,87.41Q122.5,88.72 123,89.63Q123.5,90.53 123.94,91.41Q124.38,92.3 124.75,93.16Q125.13,94.02 125.44,94.85Q125.75,95.69 126,96.5Q126.25,97.31 126.45,98.19Q126.64,99.06 126.78,100Q126.92,100.94 127.01,101.94Q127.09,102.94 127.13,104Q127.16,105.06 127.09,106.14Q127.02,107.22 126.84,108.31Q126.67,109.41 126.4,110.52Q126.13,111.63 125.75,112.75Q125.38,113.88 124.93,115Q124.48,116.13 123.97,117.25Q123.45,118.38 122.87,119.5Q122.28,120.63 121.63,121.75Q120.97,122.88 120.34,123.84Q119.72,124.81 119.13,125.63Q118.53,126.44 117.97,127.09Q117.41,127.75 116.88,128.25Q116.34,128.75 115.8,129.13Q115.25,129.5 114.69,129.75Q114.13,130 113.55,130.13Q112.97,130.25 112.38,130.25Q111.78,130.25 111.24,130.17Q110.7,130.09 110.22,129.94Q109.73,129.78 109.3,129.55Q108.88,129.31 108.5,129Q108.13,128.69 107.52,128Q106.92,127.31 106.09,126.25Q105.27,125.19 104.21,123.75Q103.16,122.31 101.88,120.5Q100.59,118.69 99.39,117.05Q98.19,115.41 97.06,113.94Q95.94,112.47 94.89,111.17Q93.84,109.88 92.88,108.75Q91.91,107.63 91.05,106.5Q90.19,105.38 89.44,104.25Q88.69,103.13 88.05,102Q87.41,100.88 86.88,99.75Q86.34,98.63 85.91,97.45Q85.48,96.28 85.16,95.06Q84.83,93.84 84.6,92.58Q84.38,91.31 84.25,90Q84.13,88.69 84.07,87.45Q84.02,86.2 84.03,85.03Q84.05,83.86 84.13,82.76Q84.22,81.66 84.38,80.63Q84.53,79.59 84.84,78.34Q85.14,77.09 85.59,75.63Q86.05,74.16 86.65,72.47Q87.25,70.78 88,68.88Q88.75,66.97 89.41,65.39Q90.06,63.81 90.63,62.56Q91.19,61.31 91.66,60.39Q92.13,59.47 92.5,58.88Q92.88,58.28 93.22,57.78Q93.56,57.28 93.88,56.88Q94.19,56.47 94.47,56.16Q94.75,55.84 95,55.63Q95.25,55.41 95.49,55.25Q95.73,55.09 95.97,55Q96.2,54.91 96.43,54.88ZM171.91,104.19Q172.59,104 172.88,104Q173.16,104 173.43,104.07Q173.7,104.14 173.97,104.28Q174.23,104.42 174.49,104.63Q174.75,104.84 175,105.13Q175.25,105.41 175.44,105.91Q175.63,106.41 175.75,107.13Q175.88,107.84 175.94,108.78Q176,109.72 176,110.88Q176,112.03 175.94,113.29Q175.88,114.55 175.75,115.91Q175.63,117.27 175.44,118.73Q175.25,120.19 175,121.75Q174.75,123.31 174.47,124.73Q174.19,126.14 173.88,127.41Q173.56,128.67 173.22,129.79Q172.88,130.91 172.5,131.88Q172.13,132.84 171.76,133.72Q171.39,134.59 171.03,135.38Q170.67,136.16 170.32,136.84Q169.97,137.53 169.63,138.13Q169.28,138.72 168.8,139.41Q168.33,140.09 167.72,140.88Q167.11,141.66 166.37,142.53Q165.63,143.41 164.75,144.38Q163.88,145.34 162.97,146.25Q162.06,147.16 161.13,148Q160.19,148.84 159.22,149.63Q158.25,150.41 157.25,151.13Q156.25,151.84 155.16,152.57Q154.06,153.3 152.88,154.03Q151.69,154.77 150.41,155.51Q149.13,156.25 147.75,157Q146.38,157.75 144.68,158.62Q142.98,159.48 140.97,160.47Q138.95,161.45 136.62,162.55Q134.28,163.66 131.63,164.88Q128.97,166.09 126.95,167.02Q124.92,167.94 123.53,168.56Q122.14,169.19 121.38,169.52Q120.63,169.84 120.5,169.88Q120.38,169.91 120.23,169.9Q120.08,169.89 119.91,169.84Q119.73,169.8 119.54,169.71Q119.34,169.63 119.13,169.5Q118.91,169.38 118.7,169.2Q118.48,169.03 118.28,168.81Q118.08,168.59 117.88,168.33Q117.69,168.06 117.5,167.75Q117.31,167.44 117.18,166.81Q117.05,166.19 116.97,165.25Q116.89,164.31 116.87,163.06Q116.84,161.81 116.88,160.25Q116.91,158.69 116.96,157.31Q117.02,155.94 117.09,154.75Q117.17,153.56 117.27,152.56Q117.38,151.56 117.5,150.75Q117.63,149.94 117.78,149.13Q117.94,148.33 118.13,147.53Q118.31,146.73 118.53,145.95Q118.75,145.16 119,144.38Q119.25,143.59 119.62,142.68Q119.98,141.77 120.47,140.72Q120.95,139.67 121.55,138.49Q122.16,137.31 122.88,136Q123.59,134.69 124.34,133.48Q125.08,132.28 125.84,131.19Q126.61,130.09 127.4,129.11Q128.19,128.13 129,127.25Q129.81,126.38 130.67,125.54Q131.53,124.7 132.44,123.91Q133.34,123.11 134.3,122.35Q135.25,121.59 136.25,120.88Q137.25,120.16 138.52,119.37Q139.78,118.58 141.31,117.72Q142.84,116.86 144.64,115.93Q146.44,115 148.5,114Q150.56,113 152.58,112.06Q154.59,111.13 156.56,110.25Q158.53,109.38 160.45,108.56Q162.38,107.75 164.25,107Q166.13,106.25 167.6,105.69Q169.08,105.13 170.16,104.75Q171.23,104.38 171.91,104.19ZM55.58,116.13Q56,116.22 56.5,116.38Q57,116.53 57.53,116.77Q58.06,117 58.63,117.31Q59.19,117.63 59.78,118.02Q60.38,118.41 61,118.88Q61.63,119.34 63.05,120.23Q64.48,121.11 66.72,122.41Q68.95,123.7 71.99,125.41Q75.03,127.13 78.88,129.25Q82.72,131.38 85.85,133.16Q88.98,134.95 91.41,136.41Q93.83,137.86 95.54,138.98Q97.25,140.09 98.25,140.88Q99.25,141.66 100.16,142.42Q101.06,143.19 101.88,143.94Q102.69,144.69 103.41,145.42Q104.13,146.16 104.75,146.88Q105.38,147.59 106.02,148.48Q106.67,149.36 107.34,150.41Q108.02,151.45 108.71,152.66Q109.41,153.88 110.13,155.25Q110.84,156.63 111.45,157.93Q112.05,159.23 112.53,160.47Q113.02,161.7 113.38,162.87Q113.75,164.03 114,165.13Q114.25,166.22 114.45,167.7Q114.64,169.19 114.78,171.06Q114.92,172.94 115.01,175.2Q115.09,177.47 115.13,180.13Q115.16,182.78 115.13,184.85Q115.11,186.92 115.03,188.41Q114.95,189.89 114.82,190.79Q114.69,191.69 114.5,192Q114.31,192.31 114.04,192.54Q113.77,192.77 113.41,192.91Q113.05,193.05 112.6,193.1Q112.16,193.16 111.63,193.13Q111.09,193.09 110.36,192.83Q109.63,192.56 108.69,192.06Q107.75,191.56 106.61,190.83Q105.47,190.09 104.13,189.13Q102.78,188.16 101.27,187.12Q99.75,186.08 98.06,184.97Q96.38,183.86 94.52,182.68Q92.66,181.5 90.63,180.25Q88.59,179 86.78,177.84Q84.97,176.69 83.38,175.63Q81.78,174.56 80.41,173.59Q79.03,172.63 77.88,171.75Q76.72,170.88 75.59,169.95Q74.47,169.03 73.38,168.06Q72.28,167.09 71.22,166.08Q70.16,165.06 69.13,164Q68.09,162.94 67.09,161.75Q66.09,160.56 65.13,159.25Q64.16,157.94 63.22,156.5Q62.28,155.06 61.38,153.5Q60.47,151.94 59.67,150.4Q58.88,148.86 58.19,147.34Q57.5,145.83 56.92,144.34Q56.34,142.84 55.88,141.38Q55.41,139.91 55.02,138.55Q54.63,137.2 54.31,135.97Q54,134.73 53.77,133.62Q53.53,132.5 53.38,131.5Q53.22,130.5 53.09,129.47Q52.97,128.44 52.88,127.38Q52.78,126.31 52.72,125.22Q52.66,124.13 52.63,123Q52.59,121.88 52.59,120.98Q52.58,120.08 52.59,119.41Q52.61,118.73 52.65,118.29Q52.69,117.84 52.75,117.63Q52.81,117.41 52.91,117.21Q53,117.02 53.13,116.84Q53.25,116.67 53.41,116.52Q53.56,116.38 53.75,116.25Q53.94,116.13 54.2,116.07Q54.47,116.02 54.81,116.03Q55.16,116.05 55.58,116.13ZM332.48,63.09Q333.03,63 333.63,63Q334.22,63 334.75,63.04Q335.28,63.08 335.75,63.16Q336.22,63.23 336.63,63.35Q337.03,63.47 337.38,63.63Q337.72,63.78 338.05,63.97Q338.38,64.16 338.69,64.38Q339,64.59 339.3,64.84Q339.59,65.09 339.88,65.38Q340.16,65.66 340.41,65.98Q340.66,66.31 340.88,66.69Q341.09,67.06 341.28,67.48Q341.47,67.91 341.63,68.38Q341.78,68.84 341.9,71.3Q342.02,73.75 342.09,78.19Q342.17,82.63 342.21,89.05Q342.25,95.47 342.25,103.88Q342.25,112.28 342.3,118.69Q342.34,125.09 342.44,129.5Q342.53,133.91 342.67,136.31Q342.81,138.72 343,139.13Q343.19,139.53 343.41,139.9Q343.63,140.27 343.88,140.59Q344.13,140.92 344.41,141.21Q344.69,141.5 345,141.75Q345.31,142 345.74,142.2Q346.17,142.41 346.72,142.56Q347.27,142.72 347.93,142.83Q348.59,142.94 349.38,143Q350.16,143.06 350.88,143.08Q351.61,143.09 352.28,143.06Q352.95,143.03 353.57,142.95Q354.19,142.88 354.75,142.75Q355.31,142.63 355.84,142.59Q356.36,142.56 356.84,142.63Q357.33,142.69 357.77,142.84Q358.22,143 358.63,143.25Q359.03,143.5 359.38,143.8Q359.72,144.09 360,144.44Q360.28,144.78 360.5,145.17Q360.72,145.56 360.88,146Q361.03,146.44 361.15,146.88Q361.27,147.33 361.34,147.78Q361.42,148.23 361.46,148.7Q361.5,149.16 361.5,149.63Q361.5,150.09 361.44,150.52Q361.38,150.95 361.25,151.34Q361.13,151.73 360.94,152.09Q360.75,152.44 360.5,152.75Q360.25,153.06 359.99,153.33Q359.73,153.59 359.47,153.81Q359.2,154.03 358.93,154.2Q358.66,154.38 358.38,154.5Q358.09,154.63 357.71,154.76Q357.33,154.89 356.84,155.03Q356.36,155.17 355.77,155.32Q355.19,155.47 354.5,155.63Q353.81,155.78 353.1,155.9Q352.39,156.02 351.66,156.09Q350.92,156.17 350.16,156.21Q349.41,156.25 348.63,156.25Q347.84,156.25 347.16,156.24Q346.47,156.23 345.88,156.22Q345.28,156.2 344.78,156.18Q344.28,156.16 343.88,156.13Q343.47,156.09 343.02,156.02Q342.58,155.94 342.09,155.81Q341.61,155.69 341.09,155.52Q340.56,155.34 340,155.13Q339.44,154.91 338.83,154.58Q338.22,154.25 337.56,153.81Q336.91,153.38 336.2,152.83Q335.5,152.28 334.75,151.63Q334,150.97 333.32,150.22Q332.64,149.47 332.03,148.63Q331.42,147.78 330.88,146.84Q330.34,145.91 329.88,144.88Q329.41,143.84 329.04,140.85Q328.67,137.86 328.41,132.91Q328.14,127.95 327.98,121.04Q327.81,114.13 327.75,105.25Q327.69,96.38 327.66,89.59Q327.63,82.81 327.63,78.13Q327.63,73.44 327.66,70.84Q327.69,68.25 327.75,67.75Q327.81,67.25 327.96,66.79Q328.11,66.33 328.34,65.91Q328.58,65.48 328.9,65.1Q329.22,64.72 329.63,64.38Q330.03,64.03 330.48,63.77Q330.94,63.52 331.44,63.34Q331.94,63.17 332.48,63.09ZM524.72,69.28Q525,69.25 525.25,69.25Q525.5,69.25 525.82,69.3Q526.14,69.36 526.53,69.47Q526.92,69.58 527.38,69.74Q527.84,69.91 528.38,70.13Q528.91,70.34 529.38,70.63Q529.86,70.91 530.28,71.25Q530.7,71.59 531.07,72Q531.44,72.41 531.75,72.88Q532.06,73.34 532.31,74.14Q532.56,74.94 532.75,76.06Q532.94,77.19 533.06,78.64Q533.19,80.09 533.25,81.88Q533.31,83.66 533.88,85.01Q534.44,86.36 535.5,87.28Q536.56,88.2 538.13,88.7Q539.69,89.19 541.75,89.25Q543.81,89.31 545.48,89.45Q547.16,89.59 548.44,89.81Q549.72,90.03 550.61,90.33Q551.5,90.63 552,91Q552.5,91.38 552.88,91.84Q553.25,92.31 553.5,92.88Q553.75,93.44 553.88,94.09Q554,94.75 554,95.5Q554,96.25 553.87,96.92Q553.73,97.59 553.47,98.19Q553.2,98.78 552.8,99.3Q552.41,99.81 551.88,100.25Q551.34,100.69 550.43,101.03Q549.52,101.38 548.22,101.63Q546.92,101.88 545.24,102.03Q543.56,102.19 541.5,102.25Q539.44,102.31 537.89,103.42Q536.34,104.53 535.31,106.69Q534.28,108.84 533.77,112.05Q533.25,115.25 533.25,119.5Q533.25,123.75 533.3,127.05Q533.36,130.34 533.47,132.69Q533.58,135.03 533.74,136.42Q533.91,137.81 534.13,138.25Q534.34,138.69 534.57,139.08Q534.8,139.47 535.03,139.81Q535.27,140.16 535.51,140.45Q535.75,140.75 536,141Q536.25,141.25 536.55,141.48Q536.86,141.72 537.22,141.94Q537.58,142.16 537.99,142.36Q538.41,142.56 538.88,142.75Q539.34,142.94 539.84,143.08Q540.34,143.22 540.88,143.31Q541.41,143.41 541.97,143.45Q542.53,143.5 543.13,143.5Q543.72,143.5 544.3,143.45Q544.89,143.39 545.47,143.28Q546.05,143.17 546.62,143.01Q547.19,142.84 547.75,142.63Q548.31,142.41 548.84,142.25Q549.38,142.09 549.88,142Q550.38,141.91 550.84,141.88Q551.31,141.84 551.75,141.88Q552.19,141.91 552.59,142Q553,142.09 553.38,142.25Q553.75,142.41 554.09,142.63Q554.44,142.84 554.75,143.13Q555.06,143.41 555.33,143.76Q555.59,144.11 555.81,144.53Q556.03,144.95 556.2,145.45Q556.38,145.94 556.5,146.5Q556.63,147.06 556.69,147.6Q556.75,148.14 556.75,148.66Q556.75,149.17 556.69,149.66Q556.63,150.16 556.5,150.63Q556.38,151.09 556.14,151.52Q555.91,151.95 555.56,152.34Q555.22,152.73 554.77,153.09Q554.31,153.44 553.75,153.75Q553.19,154.06 552.61,154.34Q552.03,154.61 551.44,154.84Q550.84,155.08 550.23,155.27Q549.63,155.47 549,155.63Q548.38,155.78 547.6,155.9Q546.83,156.02 545.91,156.09Q544.98,156.17 543.91,156.21Q542.84,156.25 541.63,156.25Q540.41,156.25 539.37,156.22Q538.33,156.19 537.47,156.13Q536.61,156.06 535.93,155.97Q535.25,155.88 534.75,155.75Q534.25,155.63 533.7,155.44Q533.14,155.25 532.53,155Q531.92,154.75 531.26,154.44Q530.59,154.13 529.88,153.75Q529.16,153.38 528.48,152.95Q527.81,152.53 527.19,152.06Q526.56,151.59 525.98,151.08Q525.41,150.56 524.88,150Q524.34,149.44 523.88,148.9Q523.42,148.36 523.03,147.84Q522.64,147.33 522.32,146.84Q522,146.34 521.75,145.88Q521.5,145.41 521.25,144.79Q521,144.17 520.75,143.41Q520.5,142.64 520.25,141.73Q520,140.81 519.75,139.75Q519.5,138.69 519.32,136.86Q519.14,135.03 519.03,132.44Q518.92,129.84 518.88,126.48Q518.84,123.13 518.88,119Q518.91,114.88 518.89,111.76Q518.88,108.64 518.81,106.53Q518.75,104.42 518.64,103.32Q518.53,102.22 518.38,102.13Q518.22,102.03 517.99,101.97Q517.77,101.91 517.47,101.88Q517.17,101.84 516.8,101.84Q516.44,101.84 516,101.88Q515.56,101.91 515.16,101.9Q514.77,101.89 514.41,101.84Q514.05,101.8 513.73,101.71Q513.41,101.63 513.13,101.5Q512.84,101.38 512.56,101.2Q512.28,101.02 512,100.78Q511.72,100.55 511.44,100.26Q511.16,99.97 510.88,99.63Q510.59,99.28 510.38,98.87Q510.17,98.45 510.03,97.97Q509.89,97.48 509.82,96.93Q509.75,96.38 509.75,95.75Q509.75,95.13 509.84,94.55Q509.92,93.97 510.09,93.44Q510.27,92.91 510.52,92.42Q510.78,91.94 511.13,91.5Q511.47,91.06 511.92,90.71Q512.38,90.36 512.94,90.09Q513.5,89.83 514.17,89.65Q514.84,89.47 515.63,89.38Q516.41,89.28 517,88.73Q517.59,88.17 518,87.16Q518.41,86.14 518.63,84.66Q518.84,83.19 518.88,81.25Q518.91,79.31 519,77.76Q519.09,76.2 519.25,75.03Q519.41,73.86 519.63,73.07Q519.84,72.28 520.13,71.88Q520.41,71.47 520.71,71.13Q521.02,70.8 521.34,70.53Q521.67,70.27 522.02,70.07Q522.38,69.88 522.75,69.75Q523.13,69.63 523.47,69.53Q523.81,69.44 524.13,69.38Q524.44,69.31 524.72,69.28ZM282.13,88.27Q283.47,88.28 284.88,88.38Q286.28,88.47 287.55,88.61Q288.81,88.75 289.94,88.94Q291.06,89.13 292.05,89.36Q293.03,89.59 293.88,89.88Q294.72,90.16 295.52,90.46Q296.31,90.77 297.06,91.09Q297.81,91.42 298.52,91.77Q299.22,92.13 299.88,92.5Q300.53,92.88 301.23,93.35Q301.92,93.83 302.66,94.41Q303.39,94.98 304.16,95.66Q304.94,96.34 305.75,97.13Q306.56,97.91 307.33,98.77Q308.09,99.64 308.81,100.59Q309.53,101.55 310.2,102.59Q310.88,103.63 311.5,104.75Q312.13,105.88 312.66,106.97Q313.19,108.06 313.63,109.13Q314.06,110.19 314.41,111.22Q314.75,112.25 315,113.25Q315.25,114.25 315.44,115.28Q315.63,116.31 315.75,117.38Q315.88,118.44 315.94,119.53Q316,120.63 316,121.75Q316,122.88 315.97,123.9Q315.94,124.92 315.88,125.84Q315.81,126.77 315.72,127.59Q315.63,128.41 315.5,129.13Q315.38,129.84 315.23,130.55Q315.08,131.25 314.91,131.94Q314.73,132.63 314.54,133.3Q314.34,133.97 314.13,134.63Q313.91,135.28 313.61,136Q313.31,136.72 312.94,137.5Q312.56,138.28 312.11,139.13Q311.66,139.97 311.13,140.88Q310.59,141.78 310.02,142.63Q309.44,143.48 308.81,144.28Q308.19,145.08 307.52,145.82Q306.84,146.56 306.13,147.25Q305.41,147.94 304.66,148.58Q303.91,149.22 303.13,149.81Q302.34,150.41 301.53,150.95Q300.72,151.5 299.88,152Q299.03,152.5 298.2,152.94Q297.36,153.38 296.53,153.75Q295.7,154.13 294.88,154.44Q294.06,154.75 293.25,155Q292.44,155.25 291.44,155.45Q290.44,155.64 289.25,155.78Q288.06,155.92 286.69,156.01Q285.31,156.09 283.75,156.13Q282.19,156.16 280.8,156.12Q279.42,156.08 278.22,155.97Q277.02,155.86 275.99,155.68Q274.97,155.5 274.13,155.25Q273.28,155 272.39,154.65Q271.5,154.3 270.56,153.84Q269.63,153.39 268.64,152.84Q267.66,152.28 266.63,151.63Q265.59,150.97 264.81,150.72Q264.03,150.47 263.5,150.63Q262.97,150.78 262.69,151.34Q262.41,151.91 262.38,152.88Q262.34,153.84 262.31,155.28Q262.28,156.72 262.25,158.63Q262.22,160.53 262.19,162.91Q262.16,165.28 262.13,168.13Q262.09,170.97 261.98,173.19Q261.86,175.41 261.66,177Q261.45,178.59 261.16,179.56Q260.88,180.53 260.5,180.88Q260.13,181.22 259.66,181.48Q259.19,181.73 258.63,181.91Q258.06,182.08 257.41,182.16Q256.75,182.25 256,182.25Q255.25,182.25 254.57,182.16Q253.89,182.08 253.28,181.91Q252.67,181.73 252.13,181.48Q251.59,181.22 251.13,180.88Q250.66,180.53 250.27,180.2Q249.89,179.88 249.59,179.56Q249.3,179.25 249.09,178.95Q248.88,178.66 248.75,178.38Q248.63,178.09 248.52,175.62Q248.42,173.14 248.34,168.47Q248.27,163.8 248.21,156.93Q248.16,150.06 248.13,141Q248.09,131.94 248.09,124.95Q248.09,117.95 248.13,113.03Q248.16,108.11 248.22,105.26Q248.28,102.41 248.38,101.63Q248.47,100.84 248.62,100.12Q248.77,99.39 248.97,98.72Q249.17,98.05 249.43,97.43Q249.69,96.81 250,96.25Q250.31,95.69 250.68,95.16Q251.05,94.64 251.47,94.16Q251.89,93.67 252.37,93.23Q252.84,92.78 253.38,92.38Q253.91,91.97 254.4,91.64Q254.89,91.31 255.34,91.06Q255.8,90.81 256.21,90.64Q256.63,90.47 257,90.38Q257.38,90.28 257.73,90.23Q258.09,90.17 258.44,90.16Q258.78,90.14 259.11,90.16Q259.44,90.19 259.75,90.25Q260.06,90.31 260.33,90.38Q260.59,90.45 260.81,90.53Q261.03,90.61 261.2,90.7Q261.38,90.78 261.5,90.88Q261.63,90.97 261.73,91.1Q261.84,91.23 261.94,91.41Q262.03,91.58 262.11,91.79Q262.19,92 262.25,92.25Q262.31,92.5 262.4,92.7Q262.48,92.91 262.59,93.06Q262.7,93.22 262.84,93.33Q262.97,93.44 263.13,93.5Q263.28,93.56 263.6,93.49Q263.92,93.42 264.41,93.22Q264.89,93.02 265.54,92.68Q266.19,92.34 267,91.88Q267.81,91.41 268.7,90.99Q269.59,90.58 270.56,90.22Q271.53,89.86 272.58,89.55Q273.63,89.25 274.75,89Q275.88,88.75 277.07,88.59Q278.27,88.42 279.53,88.34Q280.8,88.27 282.13,88.27ZM395.82,88.06Q396.94,88 398,88Q399.06,88 400.2,88.09Q401.34,88.17 402.56,88.34Q403.78,88.52 405.08,88.77Q406.38,89.03 407.75,89.38Q409.13,89.72 410.31,90.08Q411.5,90.44 412.5,90.81Q413.5,91.19 414.31,91.58Q415.13,91.97 415.75,92.38Q416.38,92.78 417.02,93.3Q417.67,93.81 418.34,94.44Q419.02,95.06 419.71,95.8Q420.41,96.53 421.13,97.38Q421.84,98.22 422.45,99.01Q423.06,99.8 423.56,100.53Q424.06,101.27 424.45,101.95Q424.84,102.63 425.13,103.25Q425.41,103.88 425.65,104.52Q425.89,105.16 426.09,105.81Q426.3,106.47 426.46,107.14Q426.63,107.81 426.75,108.5Q426.88,109.19 426.95,110.9Q427.03,112.61 427.06,115.34Q427.09,118.08 427.08,121.84Q427.06,125.59 427,130.38Q426.94,135.16 426.84,138.84Q426.73,142.53 426.59,145.13Q426.45,147.72 426.27,149.22Q426.09,150.72 425.88,151.13Q425.66,151.53 425.37,151.91Q425.08,152.3 424.72,152.66Q424.36,153.02 423.93,153.35Q423.5,153.69 423,154Q422.5,154.31 421.98,154.54Q421.45,154.77 420.91,154.91Q420.36,155.05 419.79,155.1Q419.22,155.16 418.63,155.13Q418.03,155.09 417.52,155.02Q417.02,154.94 416.59,154.81Q416.17,154.69 415.84,154.52Q415.5,154.34 415.25,154.13Q415,153.91 414.79,153.66Q414.58,153.42 414.41,153.16Q414.23,152.89 414.1,152.6Q413.97,152.31 413.88,152Q413.78,151.69 413.67,151.45Q413.56,151.2 413.44,151.03Q413.31,150.86 413.17,150.76Q413.03,150.66 412.88,150.63Q412.72,150.59 412.51,150.65Q412.3,150.7 412.03,150.84Q411.77,150.98 411.45,151.21Q411.13,151.44 410.75,151.75Q410.38,152.06 409.95,152.37Q409.52,152.67 409.03,152.97Q408.55,153.27 408.01,153.55Q407.47,153.84 406.88,154.13Q406.28,154.41 405.43,154.66Q404.58,154.91 403.47,155.13Q402.36,155.34 400.99,155.53Q399.63,155.72 398,155.88Q396.38,156.03 394.96,156.13Q393.55,156.23 392.34,156.28Q391.14,156.33 390.15,156.32Q389.16,156.31 388.38,156.25Q387.59,156.19 386.84,156.09Q386.09,155.98 385.38,155.84Q384.66,155.7 383.97,155.52Q383.28,155.34 382.63,155.13Q381.97,154.91 381.29,154.62Q380.61,154.33 379.91,153.97Q379.2,153.61 378.48,153.18Q377.75,152.75 377,152.25Q376.25,151.75 375.61,151.27Q374.97,150.8 374.44,150.34Q373.91,149.89 373.48,149.46Q373.06,149.03 372.75,148.63Q372.44,148.22 372.15,147.84Q371.86,147.45 371.59,147.09Q371.33,146.73 371.09,146.4Q370.84,146.06 370.63,145.75Q370.41,145.44 370.19,145.03Q369.97,144.63 369.75,144.13Q369.53,143.63 369.31,143.03Q369.09,142.44 368.88,141.75Q368.66,141.06 368.49,140.34Q368.33,139.61 368.22,138.84Q368.11,138.08 368.05,137.27Q368,136.47 368,135.63Q368,134.78 368.06,133.95Q368.13,133.11 368.25,132.28Q368.38,131.45 368.56,130.63Q368.75,129.81 369,129Q369.25,128.19 369.6,127.39Q369.95,126.59 370.41,125.81Q370.86,125.03 371.41,124.27Q371.97,123.5 372.63,122.75Q373.28,122 373.93,121.34Q374.58,120.69 375.22,120.13Q375.86,119.56 376.49,119.09Q377.13,118.63 377.75,118.25Q378.38,117.88 379.02,117.54Q379.67,117.2 380.34,116.91Q381.02,116.61 381.71,116.35Q382.41,116.09 383.13,115.88Q383.84,115.66 385.18,115.48Q386.52,115.31 388.47,115.19Q390.42,115.06 392.99,114.98Q395.56,114.91 398.75,114.88Q401.94,114.84 404.37,114.8Q406.8,114.75 408.47,114.69Q410.14,114.63 411.05,114.55Q411.97,114.47 412.13,114.38Q412.28,114.28 412.39,114.09Q412.5,113.91 412.56,113.63Q412.63,113.34 412.64,112.97Q412.66,112.59 412.63,112.13Q412.59,111.66 412.52,111.18Q412.44,110.7 412.31,110.22Q412.19,109.73 412.02,109.24Q411.84,108.75 411.63,108.25Q411.41,107.75 411.16,107.28Q410.91,106.81 410.63,106.38Q410.34,105.94 410.03,105.53Q409.72,105.13 409.38,104.75Q409.03,104.38 408.63,104.03Q408.22,103.69 407.75,103.38Q407.28,103.06 406.75,102.78Q406.22,102.5 405.63,102.25Q405.03,102 404.2,101.81Q403.36,101.63 402.28,101.5Q401.2,101.38 399.88,101.31Q398.56,101.25 397,101.25Q395.44,101.25 394.14,101.28Q392.84,101.31 391.81,101.38Q390.78,101.44 390.02,101.53Q389.25,101.63 388.75,101.75Q388.25,101.88 387.7,102.06Q387.16,102.25 386.56,102.5Q385.97,102.75 385.33,103.06Q384.69,103.38 384,103.75Q383.31,104.13 382.7,104.41Q382.09,104.69 381.56,104.88Q381.03,105.06 380.58,105.16Q380.13,105.25 379.75,105.25Q379.38,105.25 378.96,105.14Q378.55,105.03 378.09,104.81Q377.64,104.59 377.15,104.27Q376.66,103.94 376.13,103.5Q375.59,103.06 375.16,102.67Q374.73,102.28 374.41,101.94Q374.08,101.59 373.85,101.3Q373.63,101 373.5,100.75Q373.38,100.5 373.28,100.24Q373.19,99.98 373.13,99.72Q373.06,99.45 373.03,99.18Q373,98.91 373,98.63Q373,98.34 373.08,98.02Q373.16,97.69 373.31,97.31Q373.47,96.94 373.7,96.52Q373.94,96.09 374.25,95.63Q374.56,95.16 375.05,94.69Q375.53,94.22 376.19,93.75Q376.84,93.28 377.67,92.81Q378.5,92.34 379.5,91.88Q380.5,91.41 381.57,90.99Q382.64,90.58 383.78,90.22Q384.92,89.86 386.13,89.55Q387.34,89.25 388.63,89Q389.91,88.75 391.13,88.56Q392.36,88.38 393.53,88.25Q394.7,88.13 395.82,88.06ZM475.71,88.27Q477.06,88.28 478.5,88.38Q479.94,88.47 481.27,88.63Q482.61,88.8 483.84,89.03Q485.08,89.27 486.21,89.57Q487.34,89.88 488.38,90.25Q489.41,90.63 490.36,91.06Q491.31,91.5 492.19,92Q493.06,92.5 493.86,93.06Q494.66,93.63 495.38,94.25Q496.09,94.88 496.75,95.53Q497.41,96.19 498,96.88Q498.59,97.56 499.13,98.28Q499.66,99 500.13,99.75Q500.59,100.5 501.01,101.28Q501.42,102.06 501.78,102.88Q502.14,103.69 502.45,104.53Q502.75,105.38 503,106.25Q503.25,107.13 503.44,109.11Q503.63,111.09 503.75,114.19Q503.88,117.28 503.94,121.48Q504,125.69 504,131Q504,136.31 503.91,140.39Q503.83,144.47 503.66,147.31Q503.48,150.16 503.23,151.77Q502.97,153.38 502.63,153.75Q502.28,154.13 501.85,154.41Q501.42,154.69 500.91,154.88Q500.39,155.06 499.79,155.16Q499.19,155.25 498.5,155.25Q497.81,155.25 497.21,155.21Q496.61,155.17 496.09,155.09Q495.58,155.02 495.15,154.9Q494.72,154.78 494.38,154.63Q494.03,154.47 493.7,154.28Q493.38,154.09 493.06,153.88Q492.75,153.66 492.45,153.41Q492.16,153.16 491.88,152.88Q491.59,152.59 491.35,152.3Q491.11,152.02 490.91,151.72Q490.7,151.42 490.54,151.12Q490.38,150.81 490.25,150.5Q490.13,150.19 490.03,148.88Q489.94,147.58 489.88,145.28Q489.81,142.98 489.78,139.7Q489.75,136.41 489.75,132.13Q489.75,127.84 489.72,124.47Q489.69,121.09 489.63,118.63Q489.56,116.16 489.47,114.59Q489.38,113.03 489.25,112.38Q489.13,111.72 488.97,111.11Q488.81,110.5 488.63,109.94Q488.44,109.38 488.22,108.86Q488,108.34 487.75,107.88Q487.5,107.41 487.23,106.98Q486.97,106.55 486.69,106.16Q486.41,105.77 486.11,105.41Q485.81,105.06 485.5,104.75Q485.19,104.44 484.78,104.13Q484.38,103.83 483.88,103.53Q483.38,103.23 482.78,102.95Q482.19,102.66 481.5,102.38Q480.81,102.09 480.08,101.88Q479.34,101.66 478.56,101.5Q477.78,101.34 476.95,101.25Q476.13,101.16 475.25,101.13Q474.38,101.09 473.55,101.1Q472.73,101.11 471.97,101.16Q471.2,101.2 470.49,101.29Q469.78,101.38 469.13,101.5Q468.47,101.63 467.83,101.79Q467.19,101.95 466.56,102.16Q465.94,102.36 465.33,102.6Q464.72,102.84 464.13,103.13Q463.53,103.41 463.01,103.69Q462.48,103.97 462.03,104.25Q461.58,104.53 461.2,104.81Q460.81,105.09 460.5,105.38Q460.19,105.66 459.89,105.98Q459.59,106.3 459.31,106.66Q459.03,107.02 458.77,107.41Q458.5,107.81 458.25,108.25Q458,108.69 457.79,109.1Q457.58,109.52 457.41,109.91Q457.23,110.3 457.1,110.66Q456.97,111.03 456.88,111.38Q456.78,111.72 456.71,113.21Q456.64,114.7 456.59,117.34Q456.55,119.98 456.52,123.77Q456.5,127.56 456.5,132.5Q456.5,137.44 456.41,141.23Q456.33,145.03 456.16,147.69Q455.98,150.34 455.73,151.86Q455.47,153.38 455.13,153.75Q454.78,154.13 454.34,154.41Q453.89,154.69 453.34,154.88Q452.8,155.06 452.15,155.16Q451.5,155.25 450.75,155.25Q450,155.25 449.32,155.17Q448.64,155.09 448.03,154.94Q447.42,154.78 446.88,154.55Q446.34,154.31 445.88,154Q445.41,153.69 445.01,153.32Q444.61,152.95 444.28,152.53Q443.95,152.11 443.7,151.63Q443.44,151.16 443.25,150.63Q443.06,150.09 442.92,148.16Q442.78,146.22 442.69,142.88Q442.59,139.53 442.55,134.78Q442.5,130.03 442.5,123.88Q442.5,117.72 442.56,112.94Q442.63,108.16 442.75,104.75Q442.88,101.34 443.06,99.31Q443.25,97.28 443.5,96.63Q443.75,95.97 444.04,95.38Q444.33,94.8 444.66,94.28Q444.98,93.77 445.35,93.32Q445.72,92.88 446.13,92.5Q446.53,92.13 446.91,91.81Q447.28,91.5 447.63,91.25Q447.97,91 448.28,90.81Q448.59,90.63 448.88,90.5Q449.16,90.38 449.52,90.27Q449.88,90.17 450.31,90.09Q450.75,90.02 451.27,89.96Q451.78,89.91 452.38,89.88Q452.97,89.84 453.46,89.85Q453.95,89.86 454.34,89.91Q454.73,89.95 455.02,90.04Q455.31,90.13 455.5,90.25Q455.69,90.38 455.84,90.55Q456,90.72 456.13,90.94Q456.25,91.16 456.34,91.42Q456.44,91.69 456.5,92Q456.56,92.31 456.64,92.55Q456.72,92.8 456.81,92.97Q456.91,93.14 457.02,93.24Q457.13,93.34 457.25,93.38Q457.38,93.41 457.66,93.32Q457.95,93.23 458.41,93.03Q458.86,92.83 459.48,92.51Q460.09,92.19 460.88,91.75Q461.66,91.31 462.52,90.92Q463.38,90.53 464.31,90.19Q465.25,89.84 466.27,89.55Q467.28,89.25 468.38,89Q469.47,88.75 470.65,88.59Q471.83,88.42 473.09,88.34Q474.36,88.27 475.71,88.27ZM278.91,101.29Q278.19,101.38 277.5,101.5Q276.81,101.63 276.19,101.77Q275.56,101.91 275,102.06Q274.44,102.22 273.94,102.39Q273.44,102.56 273,102.75Q272.56,102.94 272.15,103.13Q271.73,103.33 271.34,103.53Q270.95,103.73 270.59,103.95Q270.22,104.16 269.88,104.38Q269.53,104.59 269.17,104.88Q268.81,105.16 268.44,105.5Q268.06,105.84 267.67,106.25Q267.28,106.66 266.88,107.13Q266.47,107.59 266.08,108.16Q265.69,108.72 265.31,109.38Q264.94,110.03 264.58,110.78Q264.22,111.53 263.88,112.38Q263.53,113.22 263.27,114.2Q263,115.19 262.81,116.31Q262.63,117.44 262.52,118.7Q262.41,119.97 262.38,121.38Q262.34,122.78 262.38,124.05Q262.42,125.33 262.53,126.47Q262.64,127.61 262.82,128.62Q263,129.63 263.25,130.5Q263.5,131.38 263.84,132.21Q264.19,133.05 264.63,133.84Q265.06,134.64 265.59,135.4Q266.13,136.16 266.75,136.88Q267.38,137.59 268.02,138.23Q268.67,138.86 269.34,139.41Q270.02,139.95 270.71,140.41Q271.41,140.88 272.13,141.25Q272.84,141.63 273.66,141.94Q274.47,142.25 275.38,142.5Q276.28,142.75 277.28,142.94Q278.28,143.13 279.38,143.25Q280.47,143.38 281.52,143.41Q282.58,143.44 283.59,143.38Q284.61,143.31 285.59,143.16Q286.56,143 287.5,142.75Q288.44,142.5 289.3,142.19Q290.17,141.88 290.97,141.5Q291.77,141.13 292.49,140.69Q293.22,140.25 293.88,139.75Q294.53,139.25 295.09,138.8Q295.64,138.34 296.09,137.94Q296.55,137.53 296.9,137.17Q297.25,136.81 297.5,136.5Q297.75,136.19 298,135.83Q298.25,135.47 298.5,135.06Q298.75,134.66 299,134.2Q299.25,133.75 299.5,133.25Q299.75,132.75 299.98,132.2Q300.2,131.66 300.41,131.06Q300.61,130.47 300.79,129.83Q300.97,129.19 301.13,128.5Q301.28,127.81 301.4,127.06Q301.52,126.31 301.59,125.5Q301.67,124.69 301.71,123.81Q301.75,122.94 301.75,122Q301.75,121.06 301.68,120.13Q301.61,119.2 301.47,118.28Q301.33,117.36 301.12,116.45Q300.91,115.53 300.63,114.63Q300.34,113.72 299.98,112.85Q299.63,111.98 299.19,111.16Q298.75,110.33 298.23,109.54Q297.72,108.75 297.13,108Q296.53,107.25 295.84,106.57Q295.14,105.89 294.34,105.28Q293.55,104.67 292.65,104.13Q291.75,103.59 290.75,103.13Q289.75,102.66 288.8,102.3Q287.84,101.94 286.94,101.69Q286.03,101.44 285.17,101.3Q284.31,101.16 283.5,101.13Q282.69,101.09 281.91,101.1Q281.13,101.11 280.38,101.16Q279.63,101.2 278.91,101.29ZM392.84,126.54Q391.81,126.63 391.25,126.75Q390.69,126.88 390.11,127.08Q389.53,127.28 388.94,127.56Q388.34,127.84 387.73,128.2Q387.13,128.56 386.5,129Q385.88,129.44 385.37,129.86Q384.86,130.28 384.47,130.69Q384.08,131.09 383.8,131.48Q383.53,131.88 383.38,132.25Q383.22,132.63 383.12,133.07Q383.02,133.52 382.97,134.03Q382.92,134.55 382.93,135.13Q382.94,135.72 383,136.38Q383.06,137.03 383.18,137.61Q383.3,138.19 383.47,138.69Q383.64,139.19 383.87,139.61Q384.09,140.03 384.38,140.38Q384.66,140.72 384.99,141.04Q385.33,141.36 385.72,141.66Q386.11,141.95 386.55,142.23Q387,142.5 387.5,142.75Q388,143 388.76,143.19Q389.52,143.38 390.53,143.5Q391.55,143.63 392.82,143.69Q394.09,143.75 395.63,143.75Q397.16,143.75 398.48,143.68Q399.8,143.61 400.91,143.47Q402.02,143.33 402.91,143.12Q403.81,142.91 404.5,142.63Q405.19,142.34 405.84,141.99Q406.5,141.64 407.13,141.22Q407.75,140.8 408.34,140.3Q408.94,139.81 409.5,139.25Q410.06,138.69 410.52,138.2Q410.97,137.7 411.31,137.28Q411.66,136.86 411.89,136.51Q412.13,136.16 412.25,135.88Q412.38,135.59 412.47,135.13Q412.56,134.66 412.63,134Q412.69,133.34 412.72,132.5Q412.75,131.66 412.75,130.63Q412.75,129.59 412.15,128.81Q411.55,128.03 410.34,127.5Q409.14,126.97 407.34,126.69Q405.53,126.41 403.13,126.38Q400.72,126.34 398.77,126.35Q396.83,126.36 395.34,126.41Q393.86,126.45 392.84,126.54Z"></path></svg>
